<svg width="51" height="51" viewBox="0 0 51 51" fill="none" xmlns="http://www.w3.org/2000/svg">
<path d="M28.0309 0C30.8903 0.007625 32.3416 0.022875 33.5947 0.0584583L34.0877 0.0762499C34.6571 0.0965833 35.2188 0.122 35.8974 0.1525C38.6017 0.279583 40.447 0.706584 42.066 1.33438C43.7435 1.97996 45.1567 2.85429 46.5699 4.26492C47.8628 5.53507 48.8629 7.07212 49.5004 8.76875C50.1282 10.3878 50.5552 12.233 50.6823 14.9399C50.7128 15.616 50.7382 16.1777 50.7585 16.7496L50.7738 17.2427C50.8119 18.4932 50.8272 19.9445 50.8322 22.8038L50.8348 24.6999V28.0295C50.841 29.8834 50.8215 31.7373 50.7763 33.5907L50.7611 34.0838C50.7407 34.6556 50.7153 35.2173 50.6848 35.8934C50.5577 38.6003 50.1257 40.443 49.5004 42.0646C48.8629 43.7612 47.8628 45.2983 46.5699 46.5684C45.2997 47.8613 43.7627 48.8615 42.066 49.499C40.447 50.1268 38.6017 50.5538 35.8974 50.6808L34.0877 50.7571L33.5947 50.7723C32.3416 50.8079 30.8903 50.8257 28.0309 50.8308L26.1349 50.8333H22.8078C20.9531 50.8399 19.0983 50.8204 17.2441 50.7749L16.751 50.7596C16.1477 50.7368 15.5444 50.7105 14.9414 50.6808C12.237 50.5538 10.3918 50.1268 8.7702 49.499C7.07447 48.8611 5.53832 47.861 4.2689 46.5684C2.97506 45.2985 1.97406 43.7614 1.33582 42.0646C0.708029 40.4455 0.281029 38.6003 0.153946 35.8934L0.0776956 34.0838L0.0649876 33.5907C0.0181346 31.7373 -0.00304821 29.8834 0.00144569 28.0295V22.8038C-0.00558937 20.9499 0.0130515 19.096 0.0573626 17.2427L0.0751541 16.7496C0.0954875 16.1777 0.120904 15.616 0.151404 14.9399C0.278487 12.233 0.705487 10.3903 1.33328 8.76875C1.973 7.07142 2.97576 5.53432 4.27145 4.26492C5.54013 2.9726 7.07538 1.97252 8.7702 1.33438C10.3918 0.706584 12.2345 0.279583 14.9414 0.1525C15.6174 0.122 16.1817 0.0965833 16.751 0.0762499L17.2441 0.0609998C19.0975 0.0158415 20.9514 -0.00364652 22.8053 0.00254148L28.0309 0ZM25.4181 12.7083C22.0477 12.7083 18.8152 14.0472 16.432 16.4305C14.0487 18.8138 12.7098 22.0462 12.7098 25.4167C12.7098 28.7871 14.0487 32.0195 16.432 34.4028C18.8152 36.7861 22.0477 38.125 25.4181 38.125C28.7886 38.125 32.021 36.7861 34.4043 34.4028C36.7875 32.0195 38.1264 28.7871 38.1264 25.4167C38.1264 22.0462 36.7875 18.8138 34.4043 16.4305C32.021 14.0472 28.7886 12.7083 25.4181 12.7083ZM25.4181 17.7917C26.4194 17.7915 27.411 17.9886 28.3362 18.3716C29.2613 18.7546 30.102 19.3162 30.8102 20.0241C31.5183 20.732 32.0801 21.5725 32.4635 22.4975C32.8468 23.4226 33.0442 24.4141 33.0444 25.4154C33.0445 26.4167 32.8475 27.4083 32.4645 28.3335C32.0814 29.2586 31.5199 30.0993 30.812 30.8075C30.104 31.5156 29.2636 32.0774 28.3385 32.4608C27.4135 32.8441 26.422 33.0415 25.4207 33.0417C23.3984 33.0417 21.4589 32.2383 20.029 30.8084C18.599 29.3784 17.7957 27.4389 17.7957 25.4167C17.7957 23.3944 18.599 21.4549 20.029 20.025C21.4589 18.595 23.3984 17.7917 25.4207 17.7917M38.7644 8.89583C37.9218 8.89583 37.1137 9.23056 36.5179 9.82638C35.9221 10.4222 35.5873 11.2303 35.5873 12.0729C35.5873 12.9155 35.9221 13.7236 36.5179 14.3195C37.1137 14.9153 37.9218 15.25 38.7644 15.25C39.607 15.25 40.4151 14.9153 41.0109 14.3195C41.6068 13.7236 41.9415 12.9155 41.9415 12.0729C41.9415 11.2303 41.6068 10.4222 41.0109 9.82638C40.4151 9.23056 39.607 8.89583 38.7644 8.89583Z" fill="#AF8600"/>
</svg>
