<svg width="51" height="51" viewBox="0 0 51 51" fill="none" xmlns="http://www.w3.org/2000/svg">
<path d="M44.4659 13.5149C37.8041 3.18743 24.1616 0.127427 13.6109 6.5343C3.31531 12.9412 0.000305653 26.9024 6.66218 37.1981L7.20406 38.0268L4.97281 46.3781L13.3241 44.1468L14.1528 44.6887C17.7547 46.6331 21.6753 47.7487 25.5641 47.7487C29.7397 47.7487 33.9153 46.6331 37.5172 44.4018C47.8128 37.7081 50.8728 24.0337 44.4659 13.4512V13.5149ZM38.6328 34.9987C37.5172 36.6562 36.1147 37.7718 34.1703 38.0587C33.0547 38.0587 31.6522 38.6006 26.1059 36.4012C21.3884 34.1699 17.4678 30.5362 14.6947 26.3606C13.0372 24.4162 12.1766 21.8981 11.9216 19.3799C11.9216 17.1487 12.7503 15.2043 14.1528 13.8018C14.6947 13.2599 15.2684 12.9731 15.8103 12.9731H17.2128C17.7547 12.9731 18.3284 12.9731 18.6153 14.0887C19.1572 15.4912 20.5597 18.8381 20.5597 19.1249C20.8466 19.4118 20.7191 21.5474 19.4441 22.7587C18.7428 23.5556 18.6153 23.5874 18.9022 24.1612C20.0178 25.8187 21.4203 27.5081 22.7909 28.9106C24.4484 30.3131 26.1378 31.4287 28.0822 32.2574C28.6241 32.5443 29.1978 32.5443 29.4847 31.9706C29.7716 31.4287 31.1422 30.0262 31.7159 29.4524C32.2578 28.9106 32.5447 28.9106 33.1184 29.1656L37.5809 31.3968C38.1228 31.6837 38.6966 31.9387 38.9834 32.2256C39.2703 33.0543 39.2703 34.1699 38.6966 34.9987H38.6328Z" fill="#AF8600"/>
</svg>
